<svg width="40" height="40" viewBox="0 0 40 40" fill="none" xmlns="http://www.w3.org/2000/svg">
<path fill-rule="evenodd" clip-rule="evenodd" d="M24.0004 1.6H16.4004C16.1283 1.6 15.8612 1.62089 15.6004 1.66116V3.2C15.6004 4.7464 14.3468 6 12.8004 6H11.2616C11.2213 6.26078 11.2004 6.52795 11.2004 6.8V16.7526L11.3538 16.8469C12.5305 17.5699 13.2995 18.8035 13.4304 20.1784L13.565 21.591C13.5908 21.8619 13.5915 22.1345 13.5669 22.4054L13.4372 23.8368C13.3058 25.2861 12.4669 26.5742 11.2004 27.2813V32.4C11.2004 35.7137 13.8867 38.4 17.2004 38.4H23.2004C26.5141 38.4 29.2004 35.7137 29.2004 32.4V27.1174C27.9646 26.4233 27.131 25.1694 26.9803 23.7442L26.8459 22.4723C26.8125 22.1569 26.8134 21.8389 26.8484 21.5236L26.9869 20.2773C27.1436 18.868 27.9693 17.6232 29.2004 16.9298V6.8C29.2004 6.52795 29.1795 6.26078 29.1392 6H27.6004C26.054 6 24.8004 4.7464 24.8004 3.2V1.66116C24.5396 1.62089 24.2724 1.6 24.0004 1.6ZM26.4004 2.18577V3.2C26.4004 3.86274 26.9376 4.4 27.6004 4.4H28.6146C28.1216 3.45409 27.3463 2.67877 26.4004 2.18577ZM11.7862 4.4C12.2792 3.4541 13.0545 2.67877 14.0004 2.18577V3.2C14.0004 3.86274 13.4631 4.4 12.8004 4.4H11.7862ZM11.2004 25.2392C11.5623 24.8076 11.7914 24.2701 11.8437 23.6924L11.9734 22.261C11.9891 22.0886 11.9887 21.9151 11.9722 21.7428L11.8377 20.3302C11.7835 19.7613 11.5576 19.2304 11.2004 18.8021V25.2392ZM29.2004 18.9812V25.0686C28.854 24.6507 28.6305 24.134 28.5715 23.5759L28.437 22.3041C28.4158 22.1034 28.4163 21.901 28.4386 21.7004L28.5772 20.454C28.6382 19.905 28.8588 19.3953 29.2004 18.9812ZM16.4004 0C12.6449 0 9.60039 3.04446 9.60039 6.8L9.60039 13.2C7.83308 13.2 6.40039 14.6327 6.40039 16.4C6.40039 17.0627 6.93765 17.6 7.60039 17.6H9.60039V32.4C9.60039 36.5974 13.003 40 17.2004 40H23.2004C27.3978 40 30.8004 36.5974 30.8004 32.4V17.6H32.4004C33.0631 17.6 33.6004 17.0627 33.6004 16.4C33.6004 14.7682 32.3789 13.4216 30.8004 13.2248V6.8C30.8004 3.04446 27.7559 0 24.0004 0H16.4004ZM30.8004 14.8504V16H31.95C31.8053 15.4378 31.3626 14.9951 30.8004 14.8504ZM8.0508 16C8.22841 15.3099 8.85485 14.8 9.60039 14.8L9.60039 16H8.0508ZM26.0004 14.5261V11.51C26.0004 10.8536 25.5365 10.2887 24.8926 10.1611C21.7946 9.54709 18.6062 9.54709 15.5082 10.1611C14.8643 10.2887 14.4004 10.8536 14.4004 11.51V14.5261C18.2491 13.9989 22.1517 13.9989 26.0004 14.5261ZM15.1971 8.59164C13.8041 8.86774 12.8004 10.0899 12.8004 11.51V16.0233C12.8004 16.22 12.9777 16.3692 13.1716 16.3356C17.8227 15.529 22.578 15.529 27.2292 16.3356C27.423 16.3692 27.6004 16.22 27.6004 16.0233V11.51C27.6004 10.0899 26.5967 8.86774 25.2037 8.59164C21.9003 7.93692 18.5005 7.93692 15.1971 8.59164ZM26.0004 30.8354V30.009C26.0004 29.7397 25.7435 29.496 25.4353 29.5421C21.9919 30.0579 18.4089 30.0579 14.9655 29.5421C14.6573 29.496 14.4004 29.7397 14.4004 30.009V30.8354C14.4004 31.8455 15.1283 32.7085 16.1238 32.8789C18.8219 33.3408 21.5789 33.3408 24.277 32.8789C25.2725 32.7085 26.0004 31.8455 26.0004 30.8354ZM12.8004 30.8354C12.8004 32.625 14.09 34.1541 15.8539 34.456C18.7306 34.9484 21.6702 34.9484 24.5469 34.456C26.3108 34.1541 27.6004 32.625 27.6004 30.8354V30.009C27.6004 28.7406 26.4527 27.7719 25.1983 27.9598C21.912 28.452 18.4888 28.452 15.2025 27.9598C13.948 27.7719 12.8004 28.7406 12.8004 30.009V30.8354Z" fill="#4A4A4A"/>
<path d="M6.80078 30.4L2.80078 28V32.8L6.80078 30.4Z" fill="#506CFF"/>
<path d="M33.5996 30.4L37.5996 28V32.8L33.5996 30.4Z" fill="#506CFF"/>
</svg>
