<svg width="16" height="17" viewBox="0 0 16 17" fill="none" xmlns="http://www.w3.org/2000/svg">
<g clip-path="url(#clip0_931_46200)">
<path fill-rule="evenodd" clip-rule="evenodd" d="M1.09961 1.8999C1.09961 1.34762 1.54732 0.899902 2.09961 0.899902H3.29961C3.85189 0.899902 4.29961 1.34762 4.29961 1.8999V2.8999H6.73434C6.95903 2.42691 7.44113 2.0999 7.99961 2.0999C8.55809 2.0999 9.04019 2.42691 9.26488 2.8999H11.4996V1.8999C11.4996 1.34762 11.9473 0.899902 12.4996 0.899902H13.6996C14.2519 0.899902 14.6996 1.34762 14.6996 1.8999V4.5999C14.6996 5.15219 14.2519 5.5999 13.6996 5.5999H12.4996C11.9473 5.5999 11.4996 5.15219 11.4996 4.5999V3.6999H9.38543C9.31133 4.21796 8.95361 4.64452 8.47461 4.81726V11.3726C8.84109 11.5209 9.09961 11.8802 9.09961 12.2999V13.0999H11.5996V12.2999C11.5996 11.7476 12.0473 11.2999 12.5996 11.2999H13.7996C14.3519 11.2999 14.7996 11.7476 14.7996 12.2999V14.9999C14.7996 15.5522 14.3519 15.9999 13.7996 15.9999H12.5996C12.0473 15.9999 11.5996 15.5522 11.5996 14.9999V13.8999H9.09961V14.9999C9.09961 15.5522 8.65189 15.9999 8.09961 15.9999H7.99961C7.44732 15.9999 6.99961 15.5522 6.99961 14.9999V13.8999H4.29961V14.9999C4.29961 15.5522 3.85189 15.9999 3.29961 15.9999H2.09961C1.54732 15.9999 1.09961 15.5522 1.09961 14.9999V12.2999C1.09961 11.7476 1.54732 11.2999 2.09961 11.2999H3.29961C3.85189 11.2999 4.29961 11.7476 4.29961 12.2999V13.0999H6.99961V12.2999C6.99961 11.8614 7.28187 11.4888 7.67461 11.3539V4.86198C7.12144 4.73048 6.69544 4.27073 6.61379 3.6999H4.29961V4.5999C4.29961 5.15219 3.85189 5.5999 3.29961 5.5999H2.09961C1.54732 5.5999 1.09961 5.15219 1.09961 4.5999V1.8999ZM7.99961 12.0999H8.09961C8.21007 12.0999 8.29961 12.1894 8.29961 12.2999V14.9999C8.29961 15.1104 8.21007 15.1999 8.09961 15.1999H7.99961C7.88915 15.1999 7.79961 15.1104 7.79961 14.9999V12.2999C7.79961 12.1894 7.88915 12.0999 7.99961 12.0999ZM7.39961 3.4999C7.39961 3.83127 7.66824 4.0999 7.99961 4.0999C8.33098 4.0999 8.59961 3.83127 8.59961 3.4999C8.59961 3.16853 8.33098 2.8999 7.99961 2.8999C7.66824 2.8999 7.39961 3.16853 7.39961 3.4999Z" fill="#848484"/>
</g>
<defs>
<clipPath id="clip0_931_46200">
<rect width="16" height="16" fill="white" transform="translate(0 0.5)"/>
</clipPath>
</defs>
</svg>
