<svg width="94" height="32" viewBox="0 0 94 32" fill="none" xmlns="http://www.w3.org/2000/svg">
<g clip-path="url(#clip0_810_13834)">
<path d="M17.1439 31.905L1.3457 15.913L17.1439 -0.0791016C25.8687 8.75273 25.8687 23.0732 17.1439 31.905Z" fill="#8C50FF"/>
<path d="M34.5039 21.7693V9.35303H37.9687V19.0086H42.5088V21.7693H34.5039Z" fill="#222222"/>
<path d="M49.4229 21.9761C47.5058 21.9761 45.9757 21.3917 44.8326 20.2228C43.6894 19.054 43.1157 17.5259 43.1113 15.6387V15.4993C43.1113 13.6352 43.7139 12.1158 44.9192 10.9411C46.1244 9.76651 47.6408 9.1792 49.4685 9.1792C51.3303 9.1792 52.8583 9.74441 54.0523 10.8748C55.2463 12.0052 55.8418 13.5201 55.8387 15.4195V15.5503C55.8387 17.4727 55.2519 19.0242 54.0784 20.2046C52.9048 21.385 51.353 21.9755 49.4229 21.9761ZM49.4908 19.1809C50.3423 19.1809 51.0151 18.8627 51.5091 18.2263C52.0031 17.59 52.2513 16.7159 52.2538 15.6041V15.4647C52.2538 14.3651 52.0055 13.5054 51.5091 12.8857C51.0126 12.266 50.3327 11.9572 49.4694 11.9591C48.618 11.9591 47.9455 12.266 47.4522 12.88C46.9588 13.4939 46.7121 14.3619 46.7121 15.4839V15.6233C46.7121 16.7352 46.964 17.6067 47.468 18.2379C47.9719 18.8691 48.645 19.1844 49.4871 19.1837L49.4908 19.1809Z" fill="#222222"/>
<path d="M59.9655 21.7693L55.9766 9.35303H59.6927L62.1317 18.0743L64.5875 9.35303H67.8159L63.8809 21.7693H59.9655Z" fill="#222222"/>
<path d="M74.2412 21.9768C72.1895 21.9768 70.6312 21.4097 69.5662 20.2754C68.5012 19.1412 67.9688 17.5958 67.9688 15.6394V15.5C67.9688 13.6128 68.5459 12.0847 69.7002 10.9159C70.8546 9.74701 72.3232 9.16226 74.1062 9.16162C75.7198 9.16162 77.0203 9.55797 78.0077 10.3507C78.9951 11.1434 79.5561 12.3391 79.6908 13.938H76.1393C76.0034 12.6294 75.3307 11.9752 74.1211 11.9752C73.3392 11.9752 72.7226 12.2818 72.2714 12.8951C71.8202 13.5083 71.5956 14.3706 71.5974 15.4817V15.6211C71.5974 16.7438 71.8221 17.609 72.2714 18.2165C72.7207 18.824 73.3541 19.128 74.1714 19.1287C74.7877 19.1287 75.2959 18.9579 75.6962 18.6163C76.0965 18.2748 76.3373 17.7685 76.4186 17.0976H79.8499C79.7345 18.6708 79.1722 19.8778 78.1631 20.7186C77.154 21.5593 75.8467 21.9787 74.2412 21.9768Z" fill="#222222"/>
<path d="M80.1621 21.7693L84.0133 9.35303H88.4714L92.2881 21.7693H88.6371L87.9985 19.4623H84.0096L83.37 21.7693H80.1621ZM86.0147 12.2358L84.6854 17.0112H87.3264L86.0147 12.2358Z" fill="#222222"/>
</g>
<defs>
<clipPath id="clip0_810_13834">
<rect width="93.0909" height="32" fill="white" transform="translate(0.271484)"/>
</clipPath>
</defs>
</svg>
