<svg width="16" height="15" viewBox="0 0 16 15" fill="none" xmlns="http://www.w3.org/2000/svg">
<path d="M6.23466 2.60249C5.78665 2.15447 5.06027 2.15447 4.61225 2.60249L2.33699 4.87776C1.88897 5.32578 1.88897 6.05216 2.33699 6.50018L4.9377 9.1009C5.38571 9.54891 6.11209 9.54891 6.56011 9.1009L8.83537 6.82563C9.28339 6.37761 9.28339 5.65123 8.83537 5.20321L6.23466 2.60249Z" fill="white"/>
<path fill-rule="evenodd" clip-rule="evenodd" d="M2.80046 5.34131L5.07572 3.06604C5.26773 2.87403 5.57903 2.87403 5.77104 3.06604L8.37174 5.66676C8.56375 5.85876 8.56375 6.17007 8.37174 6.36208L6.09648 8.63735C5.90448 8.82936 5.59317 8.82936 5.40116 8.63735L2.80046 6.03663C2.60845 5.84462 2.60845 5.53332 2.80046 5.34131ZM4.61225 2.60249C5.06027 2.15447 5.78665 2.15447 6.23466 2.60249L8.83537 5.20321C9.28339 5.65123 9.28339 6.37761 8.83537 6.82563L6.56011 9.1009C6.11209 9.54891 5.38571 9.54891 4.9377 9.1009L2.33699 6.50018C1.88897 6.05216 1.88897 5.32578 2.33699 4.87776L4.61225 2.60249Z" fill="#848484"/>
<path d="M9.76542 2.60249C10.2134 2.15447 10.9398 2.15447 11.3878 2.60249L13.6631 4.87776C14.1111 5.32578 14.1111 6.05216 13.6631 6.50018L11.4432 8.72006C10.9952 9.16808 10.2688 9.16808 9.8208 8.72006L7.54554 6.44479C7.09753 5.99677 7.09753 5.27039 7.54555 4.82237L9.76542 2.60249Z" fill="white"/>
<path fill-rule="evenodd" clip-rule="evenodd" d="M13.1995 5.34131L10.9243 3.06604C10.7323 2.87403 10.421 2.87403 10.229 3.06604L8.00909 5.28592C7.81708 5.47793 7.81708 5.78923 8.00909 5.98124L10.2844 8.25651C10.4764 8.44852 10.7877 8.44852 10.9797 8.25651L13.1995 6.03663C13.3915 5.84462 13.3915 5.53332 13.1995 5.34131ZM11.3878 2.60249C10.9398 2.15447 10.2134 2.15447 9.76542 2.60249L7.54555 4.82237C7.09753 5.27039 7.09753 5.99677 7.54554 6.44479L9.8208 8.72006C10.2688 9.16808 10.9952 9.16808 11.4432 8.72006L13.6631 6.50018C14.1111 6.05216 14.1111 5.32578 13.6631 4.87776L11.3878 2.60249Z" fill="#848484"/>
<path d="M4.52339 10.1496C4.02557 10.1496 3.622 10.5532 3.622 11.051V13.6732C3.622 14.1711 4.02557 14.5746 4.52339 14.5746C5.02121 14.5746 5.42478 14.1711 5.42478 13.6732L5.42478 11.051C5.42478 10.5532 5.02121 10.1496 4.52339 10.1496Z" fill="white"/>
<path fill-rule="evenodd" clip-rule="evenodd" d="M4.27756 13.6732L4.27756 11.051C4.27756 10.9152 4.38762 10.8052 4.52339 10.8052C4.65916 10.8052 4.76922 10.9152 4.76922 11.051V13.6732C4.76922 13.809 4.65916 13.9191 4.52339 13.9191C4.38762 13.9191 4.27756 13.809 4.27756 13.6732ZM3.622 11.051C3.622 10.5532 4.02557 10.1496 4.52339 10.1496C5.02121 10.1496 5.42478 10.5532 5.42478 11.051L5.42478 13.6732C5.42478 14.1711 5.02121 14.5746 4.52339 14.5746C4.02557 14.5746 3.622 14.1711 3.622 13.6732V11.051Z" fill="#848484"/>
<path d="M6.81783 10.1496C6.32001 10.1496 5.91644 10.5532 5.91644 11.051V13.6732C5.91644 14.1711 6.32001 14.5746 6.81783 14.5746C7.31565 14.5746 7.71922 14.1711 7.71922 13.6732V11.051C7.71922 10.5532 7.31565 10.1496 6.81783 10.1496Z" fill="white"/>
<path fill-rule="evenodd" clip-rule="evenodd" d="M6.572 13.6732V11.051C6.572 10.9152 6.68206 10.8052 6.81783 10.8052C6.9536 10.8052 7.06366 10.9152 7.06366 11.051V13.6732C7.06366 13.809 6.9536 13.9191 6.81783 13.9191C6.68206 13.9191 6.572 13.809 6.572 13.6732ZM5.91644 11.051C5.91644 10.5532 6.32001 10.1496 6.81783 10.1496C7.31565 10.1496 7.71922 10.5532 7.71922 11.051V13.6732C7.71922 14.1711 7.31565 14.5746 6.81783 14.5746C6.32001 14.5746 5.91644 14.1711 5.91644 13.6732V11.051Z" fill="#848484"/>
<path d="M9.11227 10.1496C9.61009 10.1496 10.0137 10.5532 10.0137 11.051V13.6732C10.0137 14.1711 9.61009 14.5746 9.11227 14.5746C8.61445 14.5746 8.21088 14.1711 8.21088 13.6732V11.051C8.21088 10.5532 8.61445 10.1496 9.11227 10.1496Z" fill="white"/>
<path fill-rule="evenodd" clip-rule="evenodd" d="M9.3581 13.6732V11.051C9.3581 10.9152 9.24804 10.8052 9.11227 10.8052C8.9765 10.8052 8.86644 10.9152 8.86644 11.051V13.6732C8.86644 13.809 8.9765 13.9191 9.11227 13.9191C9.24804 13.9191 9.3581 13.809 9.3581 13.6732ZM10.0137 11.051C10.0137 10.5532 9.61009 10.1496 9.11227 10.1496C8.61445 10.1496 8.21088 10.5532 8.21088 11.051V13.6732C8.21088 14.1711 8.61445 14.5746 9.11227 14.5746C9.61009 14.5746 10.0137 14.1711 10.0137 13.6732V11.051Z" fill="#848484"/>
<path d="M11.4067 10.1496C11.9045 10.1496 12.3081 10.5532 12.3081 11.051V13.6732C12.3081 14.1711 11.9045 14.5746 11.4067 14.5746C10.9089 14.5746 10.5053 14.1711 10.5053 13.6732V11.051C10.5053 10.5532 10.9089 10.1496 11.4067 10.1496Z" fill="white"/>
<path fill-rule="evenodd" clip-rule="evenodd" d="M11.6525 13.6732V11.051C11.6525 10.9152 11.5425 10.8052 11.4067 10.8052C11.2709 10.8052 11.1609 10.9152 11.1609 11.051V13.6732C11.1609 13.809 11.2709 13.9191 11.4067 13.9191C11.5425 13.9191 11.6525 13.809 11.6525 13.6732ZM12.3081 11.051C12.3081 10.5532 11.9045 10.1496 11.4067 10.1496C10.9089 10.1496 10.5053 10.5532 10.5053 11.051V13.6732C10.5053 14.1711 10.9089 14.5746 11.4067 14.5746C11.9045 14.5746 12.3081 14.1711 12.3081 13.6732V11.051Z" fill="#848484"/>
<path fill-rule="evenodd" clip-rule="evenodd" d="M10.5053 4.41351C11.7725 4.41351 12.7998 5.44077 12.7998 6.70796V6.9661C13.5871 7.4584 14.1109 8.33313 14.1109 9.33018C14.1109 10.8689 12.8635 12.1163 11.3248 12.1163C11.2637 12.1163 11.2031 12.1143 11.1431 12.1105C11.0949 12.1143 11.0462 12.1163 10.997 12.1163H4.60534C4.55616 12.1163 4.50745 12.1143 4.45927 12.1105C4.3992 12.1143 4.33861 12.1163 4.27756 12.1163C2.73884 12.1163 1.49145 10.8689 1.49145 9.33018C1.49145 8.33313 2.01519 7.4584 2.80256 6.9661V6.70795C2.80256 5.44077 3.82982 4.41351 5.097 4.41351H10.5053Z" fill="white"/>
<path fill-rule="evenodd" clip-rule="evenodd" d="M12.1442 7.32936L12.4522 7.52195C13.056 7.89948 13.4553 8.56845 13.4553 9.33018C13.4553 10.5069 12.5014 11.4607 11.3248 11.4607C11.2778 11.4607 11.2312 11.4592 11.1852 11.4563L11.1379 11.4532L11.0907 11.457C11.0599 11.4595 11.0287 11.4607 10.997 11.4607H4.60534C4.57367 11.4607 4.54243 11.4595 4.51166 11.457L4.46443 11.4532L4.41715 11.4563C4.37109 11.4592 4.32455 11.4607 4.27756 11.4607C3.10089 11.4607 2.14701 10.5069 2.14701 9.33018C2.14701 8.56845 2.54629 7.89948 3.1501 7.52195L3.45812 7.32936V6.70795C3.45812 5.80282 4.19187 5.06906 5.097 5.06906H10.5053C11.4105 5.06906 12.1442 5.80282 12.1442 6.70796V7.32936ZM12.7998 6.70796C12.7998 5.44077 11.7725 4.41351 10.5053 4.41351H5.097C3.82982 4.41351 2.80256 5.44077 2.80256 6.70795V6.9661C2.01519 7.4584 1.49145 8.33313 1.49145 9.33018C1.49145 10.8689 2.73884 12.1163 4.27756 12.1163C4.33861 12.1163 4.3992 12.1143 4.45927 12.1105C4.50745 12.1143 4.55616 12.1163 4.60534 12.1163H10.997C11.0462 12.1163 11.0949 12.1143 11.1431 12.1105C11.2031 12.1143 11.2637 12.1163 11.3248 12.1163C12.8635 12.1163 14.1109 10.8689 14.1109 9.33018C14.1109 8.33313 13.5871 7.4584 12.7998 6.9661V6.70796Z" fill="#848484"/>
<path d="M1.81923 10.8052C1.81923 11.8913 2.69974 12.7719 3.78589 12.7719C4.87205 12.7719 5.75256 11.8913 5.75256 10.8052C5.75256 9.71902 4.87205 8.83851 3.78589 8.83851C2.69974 8.83851 1.81923 9.71902 1.81923 10.8052Z" fill="white"/>
<path fill-rule="evenodd" clip-rule="evenodd" d="M3.78589 12.1163C3.06179 12.1163 2.47479 11.5293 2.47479 10.8052C2.47479 10.0811 3.06179 9.49407 3.78589 9.49407C4.51 9.49407 5.097 10.0811 5.097 10.8052C5.097 11.5293 4.51 12.1163 3.78589 12.1163ZM3.78589 12.7719C2.69974 12.7719 1.81923 11.8913 1.81923 10.8052C1.81923 9.71902 2.69974 8.83851 3.78589 8.83851C4.87205 8.83851 5.75256 9.71902 5.75256 10.8052C5.75256 11.8913 4.87205 12.7719 3.78589 12.7719Z" fill="#848484"/>
<path d="M6.73589 7.69129C6.73589 8.4154 7.32289 9.0024 8.04699 9.0024C8.7711 9.0024 9.3581 8.4154 9.3581 7.69129C9.3581 6.96718 8.7711 6.38018 8.04699 6.38018C7.32289 6.38018 6.73589 6.96718 6.73589 7.69129Z" fill="white"/>
<path fill-rule="evenodd" clip-rule="evenodd" d="M8.04699 8.34685C7.68494 8.34685 7.39144 8.05334 7.39144 7.69129C7.39144 7.32924 7.68494 7.03573 8.04699 7.03573C8.40905 7.03573 8.70255 7.32924 8.70255 7.69129C8.70255 8.05334 8.40905 8.34685 8.04699 8.34685ZM8.04699 9.0024C7.32289 9.0024 6.73589 8.4154 6.73589 7.69129C6.73589 6.96718 7.32289 6.38018 8.04699 6.38018C8.7711 6.38018 9.3581 6.96718 9.3581 7.69129C9.3581 8.4154 8.7711 9.0024 8.04699 9.0024Z" fill="#848484"/>
<path d="M3.13034 10.8052C3.13034 11.1672 3.42384 11.4607 3.78589 11.4607C4.14795 11.4607 4.44145 11.1672 4.44145 10.8052C4.44145 10.4431 4.14795 10.1496 3.78589 10.1496C3.42384 10.1496 3.13034 10.4431 3.13034 10.8052Z" fill="white"/>
<path d="M10.0137 9.33018C10.0137 10.0543 10.6007 10.6413 11.3248 10.6413C12.0489 10.6413 12.6359 10.0543 12.6359 9.33018C12.6359 8.60607 12.0489 8.01907 11.3248 8.01907C10.6007 8.01907 10.0137 8.60607 10.0137 9.33018Z" fill="white"/>
<path fill-rule="evenodd" clip-rule="evenodd" d="M11.3248 9.98574C10.9627 9.98574 10.6692 9.69224 10.6692 9.33018C10.6692 8.96813 10.9627 8.67462 11.3248 8.67462C11.6868 8.67462 11.9803 8.96813 11.9803 9.33018C11.9803 9.69224 11.6868 9.98574 11.3248 9.98574ZM11.3248 10.6413C10.6007 10.6413 10.0137 10.0543 10.0137 9.33018C10.0137 8.60607 10.6007 8.01907 11.3248 8.01907C12.0489 8.01907 12.6359 8.60607 12.6359 9.33018C12.6359 10.0543 12.0489 10.6413 11.3248 10.6413Z" fill="#848484"/>
<path d="M5.08736 0.635819C4.63935 0.1878 3.91297 0.1878 3.46495 0.635819L0.336013 3.76477C-0.112004 4.21279 -0.112005 4.93917 0.336012 5.38719L1.49488 6.54606C1.62288 6.67407 1.83042 6.67407 1.95843 6.54606L6.24623 2.25824C6.37424 2.13023 6.37424 1.9227 6.24623 1.79469L5.08736 0.635819Z" fill="white"/>
<path fill-rule="evenodd" clip-rule="evenodd" d="M0.79956 4.22832L3.9285 1.09937C4.12051 0.907359 4.43181 0.90736 4.62382 1.09937L5.55091 2.02647L1.72665 5.85074L0.799559 4.92364C0.607552 4.73164 0.607552 4.42033 0.79956 4.22832ZM3.46495 0.635819C3.91297 0.1878 4.63935 0.1878 5.08736 0.635819L6.24623 1.79469C6.37424 1.9227 6.37424 2.13023 6.24623 2.25824L1.95843 6.54606C1.83042 6.67407 1.62288 6.67407 1.49488 6.54606L0.336012 5.38719C-0.112005 4.93917 -0.112004 4.21279 0.336013 3.76477L3.46495 0.635819Z" fill="#848484"/>
<path d="M10.9126 0.635819C11.3607 0.1878 12.087 0.1878 12.535 0.635819L15.664 3.76477C16.112 4.21279 16.112 4.93917 15.664 5.38719L14.5051 6.54606C14.3771 6.67407 14.1696 6.67407 14.0416 6.54606L9.75377 2.25824C9.62576 2.13023 9.62576 1.9227 9.75377 1.79469L10.9126 0.635819Z" fill="white"/>
<path fill-rule="evenodd" clip-rule="evenodd" d="M15.2004 4.22832L12.0715 1.09937C11.8795 0.907359 11.5682 0.90736 11.3762 1.09937L10.4491 2.02647L14.2733 5.85074L15.2004 4.92364C15.3924 4.73164 15.3924 4.42033 15.2004 4.22832ZM12.535 0.635819C12.087 0.1878 11.3607 0.1878 10.9126 0.635819L9.75377 1.79469C9.62576 1.9227 9.62576 2.13023 9.75377 2.25824L14.0416 6.54606C14.1696 6.67407 14.3771 6.67407 14.5051 6.54606L15.664 5.38719C16.112 4.93917 16.112 4.21279 15.664 3.76477L12.535 0.635819Z" fill="#848484"/>
<path d="M10.8331 9.33018C10.8331 9.60172 11.0532 9.82185 11.3248 9.82185C11.5963 9.82185 11.8164 9.60172 11.8164 9.33018C11.8164 9.05864 11.5963 8.83851 11.3248 8.83851C11.0532 8.83851 10.8331 9.05864 10.8331 9.33018Z" fill="white"/>
</svg>
