<svg width="16" height="16" viewBox="0 0 16 16" fill="none" xmlns="http://www.w3.org/2000/svg">
<path d="M8.40259 12.8C12.8964 12.8 15.9998 9.14259 15.9998 8C15.9998 6.85181 12.8908 3.2 8.40259 3.2C3.96995 3.2 0.799805 6.85181 0.799805 8C0.799805 9.14259 3.96439 12.8 8.40259 12.8ZM8.40259 11.9151C4.73746 11.9151 1.77309 8.78973 1.77309 8C1.77309 7.33349 4.73746 4.08495 8.40259 4.08495C12.051 4.08495 15.0265 7.33349 15.0265 8C15.0265 8.78973 12.051 11.9151 8.40259 11.9151ZM8.40259 11.1365C10.1323 11.1365 11.5227 9.70829 11.5227 8C11.5227 6.24691 10.1323 4.86348 8.40259 4.86348C6.66179 4.86348 5.26581 6.24691 5.27137 8C5.2825 9.70829 6.66179 11.1365 8.40259 11.1365ZM8.40259 9.04177C7.82417 9.04177 7.35699 8.5713 7.35699 8C7.35699 7.4231 7.82417 6.95823 8.40259 6.95823C8.97544 6.95823 9.44261 7.4231 9.44261 8C9.44261 8.5713 8.97544 9.04177 8.40259 9.04177Z" fill="#848484"/>
</svg>
