<svg width="54" height="19" viewBox="0 0 54 19" fill="none" xmlns="http://www.w3.org/2000/svg">
<path fill-rule="evenodd" clip-rule="evenodd" d="M9.07694 0H9.66918L9.68549 0.000551694C11.7256 0.0695306 13.6756 0.810883 15.2487 2.09404C16.8218 0.810883 18.7718 0.0695306 20.8119 0.000551694L20.8282 0H21.4205L21.4368 0.000551694C23.4769 0.0695306 25.4269 0.810883 27 2.09404C28.5731 0.810883 30.5231 0.0695306 32.5632 0.000551694L32.5795 0H33.1718L33.1881 0.000551694C35.2282 0.0695306 37.1782 0.810883 38.7513 2.09404C40.3244 0.810884 42.2744 0.0695306 44.3145 0.000551694L44.3308 0H44.9231L44.9394 0.000551694C47.3968 0.0836434 49.7237 1.14238 51.4183 2.94854C53.113 4.7547 54.0397 7.16363 53.9987 9.65603C53.9577 12.1484 52.9523 14.5247 51.1992 16.2726C49.4461 18.0205 47.0858 19 44.6269 19C42.4805 19 40.4092 18.2536 38.7513 16.9012C37.0934 18.2536 35.022 19 32.8756 19C30.7292 19 28.6579 18.2536 27 16.9012C25.3421 18.2536 23.2708 19 21.1243 19C18.9779 19 16.9066 18.2536 15.2487 16.9012C13.5908 18.2536 11.5195 19 9.37306 19C6.91423 19 4.55386 18.0205 2.80078 16.2726C1.04769 14.5247 0.04229 12.1484 0.00130385 9.65603C-0.0396823 7.16363 0.88703 4.7547 2.58167 2.94854C4.27631 1.14238 6.60316 0.0836434 9.06062 0.000551694L9.07694 0ZM16.6477 15.4897C17.9291 16.4737 19.4996 17.0144 21.1243 17.0144C22.7491 17.0144 24.3196 16.4737 25.601 15.4897C24.2837 13.8461 23.539 11.7938 23.5039 9.65603C23.467 7.41182 24.2146 5.2353 25.601 3.50554C24.3919 2.57709 22.9222 2.04078 21.3873 1.98557H20.8614C19.3265 2.04078 17.8568 2.57709 16.6477 3.50554C18.0341 5.2353 18.7817 7.41182 18.7448 9.65603C18.7097 11.7938 17.965 13.8461 16.6477 15.4897ZM15.2487 4.91286C16.2677 6.255 16.8146 7.91416 16.7865 9.62293C16.7598 11.2473 16.2153 12.8094 15.2487 14.0824C14.2822 12.8094 13.7376 11.2473 13.7109 9.62293C13.6828 7.91416 14.2297 6.255 15.2487 4.91286ZM13.8497 3.50554C12.4634 5.2353 11.7157 7.41182 11.7526 9.65603C11.7878 11.7938 12.5324 13.8461 13.8497 15.4897C12.5683 16.4737 10.9978 17.0144 9.37306 17.0144C7.42801 17.0144 5.56086 16.2396 4.17409 14.8569C2.78732 13.4743 1.992 11.5945 1.95958 9.62293C1.92716 7.65133 2.66023 5.74576 4.00077 4.31701C5.33767 2.89213 7.17197 2.05529 9.1101 1.98557H9.63602C11.1709 2.04078 12.6406 2.57709 13.8497 3.50554ZM27 4.91286C25.981 6.255 25.4341 7.91416 25.4622 9.62293C25.4889 11.2473 26.0334 12.8094 27 14.0824C27.9665 12.8094 28.5111 11.2473 28.5378 9.62293C28.5659 7.91416 28.019 6.255 27 4.91286ZM28.399 15.4897C29.6804 16.4737 31.2509 17.0144 32.8756 17.0144C34.5004 17.0144 36.0709 16.4737 37.3523 15.4897C36.035 13.8461 35.2903 11.7938 35.2552 9.65603C35.2183 7.41182 35.9659 5.2353 37.3523 3.50554C36.1432 2.57709 34.6735 2.04078 33.1386 1.98557H32.6127C31.0778 2.04078 29.6081 2.57709 28.399 3.50554C29.7853 5.2353 30.533 7.41182 30.4961 9.65603C30.461 11.7938 29.7163 13.8461 28.399 15.4897ZM38.7513 4.91285C37.7323 6.255 37.1854 7.91416 37.2135 9.62293C37.2402 11.2473 37.7848 12.8094 38.7513 14.0824C39.7178 12.8094 40.2624 11.2473 40.2891 9.62293C40.3172 7.91416 39.7703 6.25499 38.7513 4.91285ZM40.1503 15.4897C41.4317 16.4737 43.0022 17.0144 44.6269 17.0144C46.572 17.0144 48.4391 16.2396 49.8259 14.8569C51.2127 13.4743 52.008 11.5945 52.0404 9.62293C52.0728 7.65133 51.3398 5.74576 49.9992 4.31701C48.6623 2.89213 46.828 2.05529 44.8899 1.98557H44.364C42.8291 2.04078 41.3594 2.57709 40.1503 3.50554C41.5366 5.2353 42.2843 7.41182 42.2474 9.65603C42.2122 11.7938 41.4676 13.8461 40.1503 15.4897Z" fill="#222222"/>
</svg>
