<svg width="90" height="20" viewBox="0 0 90 20" fill="none" xmlns="http://www.w3.org/2000/svg">
<path fill-rule="evenodd" clip-rule="evenodd" d="M38.494 9.66561C39.0379 9.45687 39.5045 9.08832 39.8314 8.60929C40.1582 8.13027 40.3298 7.56362 40.3231 6.9852C40.3231 4.57283 38.598 3.37695 36.2285 3.37695H30.0137V16.4945H36.7689C38.8474 16.4945 40.8843 15.0512 40.8843 12.845C40.8843 10.2223 38.494 9.69036 38.494 9.66561ZM33.2562 6.0986H35.6673C35.8216 6.08911 35.9764 6.10991 36.1227 6.15982C36.269 6.20973 36.4039 6.28776 36.5197 6.38946C36.6355 6.49115 36.73 6.61451 36.7977 6.75247C36.8655 6.89043 36.9051 7.04028 36.9144 7.19345C36.9144 7.24018 36.9144 7.28761 36.9144 7.33572C36.9078 7.6582 36.7731 7.96505 36.5395 8.18942C36.3059 8.4138 35.9924 8.53753 35.6673 8.53365H33.2354L33.2562 6.0986ZM35.688 13.7481H33.277V11.1708H35.6257C36.8104 11.1708 37.3716 11.6862 37.3716 12.4491C37.3716 13.4017 36.6649 13.7481 35.688 13.7481Z" fill="#ED0007"/>
<path fill-rule="evenodd" clip-rule="evenodd" d="M48.0341 3.04688C44.2096 3.04688 41.9648 6.0778 41.9648 9.91285C41.9648 13.7479 44.2096 16.7788 48.0341 16.7788C51.8586 16.7788 54.1034 13.7685 54.1034 9.91285C54.1034 6.05718 51.8794 3.04688 48.0341 3.04688ZM48.0341 13.6448C46.1635 13.6448 45.2281 11.9747 45.2281 9.91285C45.2281 7.851 46.1635 6.20151 48.0341 6.20151C49.9048 6.20151 50.8609 7.87162 50.8609 9.91285C50.8609 11.9953 49.9048 13.6448 48.0341 13.6448Z" fill="#ED0007"/>
<path fill-rule="evenodd" clip-rule="evenodd" d="M61.1498 8.53152L60.6925 8.42843C59.5701 8.20163 58.6763 7.91296 58.6763 7.10884C58.6763 6.24286 59.5285 5.89235 60.2768 5.89235C60.7873 5.89989 61.2907 6.01181 61.7557 6.22113C62.2206 6.43044 62.637 6.73264 62.9788 7.10884L65.0366 5.08822C64.1012 4.03668 62.5839 3.02637 60.2144 3.02637C57.4292 3.02637 55.3091 4.57276 55.3091 7.15008C55.3091 9.50059 57.0135 10.6552 59.092 11.0882L59.5493 11.1913C61.2745 11.5418 61.9188 11.8099 61.9188 12.6346C61.9188 13.4181 61.2121 13.9336 60.1313 13.9336C58.8426 13.9336 57.6786 13.3769 56.7849 12.2429L54.6855 14.3047C55.8495 15.6862 57.3253 16.7583 60.1728 16.7583C62.6463 16.7583 65.286 15.3563 65.286 12.4903C65.3276 9.50059 63.0412 8.92327 61.1498 8.53152Z" fill="#ED0007"/>
<path fill-rule="evenodd" clip-rule="evenodd" d="M72.6853 13.6447C71.2304 13.6447 69.7131 12.4488 69.7131 9.83027C69.7131 7.50037 71.1264 6.2014 72.6022 6.2014C73.7662 6.2014 74.4521 6.73749 74.9925 7.66532L77.653 5.91274C76.3228 3.91274 74.7431 3.06738 72.5606 3.06738C68.5699 3.06738 66.4082 6.13955 66.4082 9.85089C66.4082 13.7478 68.7985 16.7993 72.5191 16.7993C75.138 16.7993 76.3851 15.8921 77.7361 13.954L75.0549 12.1643C74.5144 13.0261 73.9325 13.6447 72.6853 13.6447Z" fill="#ED0007"/>
<path fill-rule="evenodd" clip-rule="evenodd" d="M86.5296 3.37695V8.2017H82.518V3.37695H79.0469V16.4904H82.518V11.3151H86.5296V16.4904H90.0007V3.37695H86.5296Z" fill="#ED0007"/>
<path d="M10.0185 0.0371094C8.03701 0.0371094 6.10004 0.619971 4.45251 1.71199C2.80498 2.80401 1.52089 4.35613 0.762616 6.17209C0.00434084 7.98805 -0.194058 9.98628 0.192507 11.9141C0.579072 13.8419 1.53324 15.6127 2.93435 17.0026C4.33546 18.3925 6.12058 19.339 8.06397 19.7224C10.0074 20.1059 12.0217 19.9091 13.8524 19.1569C15.683 18.4047 17.2477 17.1309 18.3485 15.4966C19.4494 13.8623 20.037 11.9408 20.037 9.97525C20.037 7.33949 18.9814 4.81169 17.1026 2.94792C15.2238 1.08416 12.6755 0.0371094 10.0185 0.0371094ZM10.0185 18.9856C8.22201 18.9856 6.46587 18.4571 4.97216 17.4671C3.47844 16.477 2.31423 15.0698 1.62675 13.4233C0.939271 11.7769 0.759394 9.96526 1.10987 8.21743C1.46034 6.4696 2.32543 4.86412 3.59573 3.604C4.86603 2.34389 6.48449 1.48574 8.24645 1.13808C10.0084 0.79041 11.8347 0.968844 13.4944 1.65081C15.1542 2.33278 16.5728 3.48766 17.5708 4.96939C18.5689 6.45113 19.1016 8.19318 19.1016 9.97525C19.1011 12.3648 18.1439 14.6563 16.4406 16.3459C14.7373 18.0355 12.4273 18.985 10.0185 18.9856Z" fill="black"/>
<path d="M14.1539 3.76953H13.468V7.17159H6.58813V3.76953H5.88143C4.84635 4.44691 3.99686 5.36847 3.4091 6.45161C2.82134 7.53475 2.51367 8.74562 2.51367 9.97572C2.51367 11.2058 2.82134 12.4167 3.4091 13.4998C3.99686 14.583 4.84635 15.5045 5.88143 16.1819H6.58813V12.784H13.468V16.186H14.1539C15.1895 15.509 16.0394 14.5875 16.6275 13.5043C17.2156 12.4212 17.5234 11.2101 17.5234 9.97984C17.5234 8.74956 17.2156 7.53851 16.6275 6.45533C16.0394 5.37215 15.1895 4.45071 14.1539 3.77365V3.76953ZM5.63201 14.8458C4.98738 14.2776 4.46189 13.5891 4.08555 12.8194C3.7092 12.0498 3.48937 11.2141 3.43861 10.3602C3.38785 9.50627 3.50715 8.65078 3.7897 7.84259C4.07225 7.0344 4.51252 6.28934 5.08536 5.64994C5.25705 5.45969 5.43957 5.27933 5.63201 5.10974V14.8458ZM13.468 11.8355H6.58813V8.09943H13.468V11.8355ZM14.4034 14.8252V12.7633V7.17159V5.10974C15.0464 5.68253 15.5694 6.3754 15.9424 7.14876C16.3154 7.92212 16.5311 8.76081 16.5773 9.61691C16.6234 10.473 16.499 11.3297 16.2113 12.1381C15.9235 12.9465 15.478 13.6908 14.9001 14.3283C14.743 14.5007 14.5772 14.6652 14.4034 14.8211V14.8252Z" fill="black"/>
</svg>
