<svg width="66" height="19" viewBox="0 0 66 19" fill="none" xmlns="http://www.w3.org/2000/svg">
<g clip-path="url(#clip0_837_818)">
<path d="M45.8438 0H39.7969V4.86935H45.8438V0Z" fill="#FF0000"/>
<path d="M2.625 0L0 4.91709H18.7969L20.5781 0H2.625Z" fill="#FF0000"/>
<path d="M5.15625 8.64062L1.35938 18.9999H7.82813L11.625 8.64062H5.15625Z" fill="#FF0000"/>
<path d="M18.8438 8.64062L15.0469 18.9999H21.5156L25.3125 8.64062H18.8438Z" fill="#FF0000"/>
<mask id="mask0_837_818" style="mask-type:luminance" maskUnits="userSpaceOnUse" x="0" y="0" width="66" height="19">
<path d="M66 0H0V19H66V0Z" fill="white"/>
</mask>
<g mask="url(#mask0_837_818)">
<path d="M30.5156 4.91709C31.5 4.91709 32.3437 5.72864 32.3437 6.77889C32.3437 7.82915 31.5469 8.6407 30.5156 8.6407H26.1562L31.0781 19H37.9219L33.9844 12.1256C33.9844 12.1256 38.0625 11.5528 38.625 7.25628C38.625 7.25628 38.7188 6.25377 38.625 4.91709C37.7812 0 33.5156 0 33.5156 0H22.2656L20.4844 4.91709H30.5156Z" fill="#FF0000"/>
</g>
<path d="M39.7969 8.64062V18.9999H45.8438L50.8125 8.64062H39.7969Z" fill="#FF0000"/>
<path d="M51.375 8.64062V18.9999H57.2344L62.0156 8.64062H51.375Z" fill="#FF0000"/>
<path d="M49.7812 0L47.4844 4.91709H56.3906V0H49.7812Z" fill="#FF0000"/>
<path d="M60.1406 0L58.2656 4.91709H63.7969L66 0H60.1406Z" fill="#FF0000"/>
</g>
<defs>
<clipPath id="clip0_837_818">
<rect width="66" height="19" fill="white"/>
</clipPath>
</defs>
</svg>
