<svg width="84" height="19" viewBox="0 0 84 19" fill="none" xmlns="http://www.w3.org/2000/svg">
<g clip-path="url(#clip0_837_832)">
<path fill-rule="evenodd" clip-rule="evenodd" d="M9.83952 2.21927C8.74806 2.24842 7.68723 2.45402 6.68714 2.89437L7.99033 5.12581C8.56642 4.89106 9.23333 4.74428 9.83952 4.74428C10.0518 4.74428 10.2334 4.77342 10.4457 4.80257C12.9312 4.97903 14.9319 7.47488 14.7503 9.85258C14.538 12.4656 12.3857 14.1098 9.83952 14.2275C9.68797 14.2275 9.50579 14.2275 9.35425 14.2275C7.68723 13.8751 6.29322 13.2 5.47476 11.6728L2.74639 7.09283C2.38257 8.14999 2.26166 9.14833 2.35248 10.2346C2.77702 13.6992 5.50486 16.3413 9.08178 16.7525C9.32415 16.7816 9.59715 16.7816 9.83952 16.7816C13.9925 16.7228 17.3266 13.5227 17.3873 9.52986C17.3266 5.56616 14.2043 2.51284 10.2334 2.21927C10.1125 2.21927 9.96097 2.21927 9.83952 2.21927ZM9.83952 18.8954C4.50476 18.8954 0.109375 14.6678 0.109375 9.52986C0.109375 7.00486 1.13957 4.7146 2.83721 3.01201L7.4755 10.763C7.68723 11.1148 7.99033 11.4381 8.35415 11.7025C8.77869 11.9372 9.26342 12.1132 9.77879 12.1132C9.80942 12.1132 9.83952 12.1132 9.83952 12.1132C11.7188 12.172 13.022 10.205 12.3857 8.59034C12.0219 7.56285 10.9611 6.88774 9.83952 6.88774C9.68797 6.88774 9.53642 6.88774 9.38488 6.91689C8.56642 7.00486 7.74796 7.67996 7.38414 8.38474L3.7164 2.21927C5.38341 0.898209 7.53569 0.105469 9.83952 0.105469C15.2049 0.105469 19.5697 4.33307 19.5697 9.52986C19.5697 14.6678 15.2049 18.8954 9.83952 18.8954Z" fill="#C7070F"/>
<path fill-rule="evenodd" clip-rule="evenodd" d="M34.6054 10.6453L33.12 8.20822C33.0593 8.44349 33.0292 8.67824 33.0292 8.94266V15.6661H35.6963V12.4952L34.6054 10.6453ZM50.3979 10.1461L51.8225 12.5243V15.6364H51.7919V15.6661H48.7911V7.47482L50.3979 10.1461ZM50.3979 8.8547L51.8225 11.2032V9.67659C51.8225 8.56113 53.7625 8.47316 53.7625 9.67659V15.6364H55.551V15.6661H57.0966V9.67659C57.0966 8.56113 59.0371 8.47316 59.0371 9.67659V15.6661H62.0379V9.5298C62.0379 6.21206 57.7334 5.59577 56.1572 7.6799C55.1872 6.38851 53.1865 6.12409 51.7919 6.88768V6.47648H48.9733L50.3979 8.8547ZM67.1303 11.7316L63.8565 6.24173C63.8565 9.38302 63.8565 12.5243 63.8565 15.6364H66.5242V15.2549C67.1303 15.5485 67.8274 15.7244 68.5851 15.7244C71.1619 15.7244 73.2836 13.6694 73.2836 11.1444C73.2836 8.6491 71.1619 6.59411 68.5851 6.59411C67.8274 6.59411 67.1303 6.77005 66.5242 7.06361V3.27637H63.8565C63.8565 4.33301 63.8565 3.86298 63.8565 4.92014L67.1911 10.4693C67.4334 9.99931 67.9789 9.64744 68.5851 9.64744C69.4342 9.64744 70.1312 10.3225 70.1312 11.1444C70.1312 11.9663 69.4342 12.6419 68.5851 12.6419C67.9182 12.6419 67.3727 12.2896 67.1303 11.7316ZM77.7999 11.8195L75.618 8.17907C74.8904 8.97181 74.4658 9.9993 74.4658 11.1444C74.4658 13.6694 76.588 15.7244 79.1944 15.7244C81.7712 15.7244 83.8929 13.6694 83.8929 11.1444C83.8929 8.6491 81.7712 6.59411 79.1944 6.59411C78.0121 6.59411 76.9513 7.0048 76.1028 7.70957L77.7999 10.4985C78.0428 9.99931 78.5882 9.64744 79.1944 9.64744C80.0435 9.64744 80.7405 10.3225 80.7405 11.1444C80.7405 11.9663 80.0435 12.6419 79.1944 12.6419C78.5882 12.6419 78.0428 12.3187 77.7999 11.8195ZM43.4257 13.2879C43.911 13.1114 44.2441 12.6711 44.3355 12.1719H47.4272C46.9725 14.0218 45.3963 15.4309 43.4257 15.6953C43.244 15.6953 43.0318 15.7244 42.8195 15.7244C40.2432 15.7244 38.1216 13.6694 38.1216 11.1444C38.1216 10.1461 38.4547 9.26538 39.0007 8.50231L41.4255 12.5243C41.6679 13.0526 42.1832 13.405 42.8195 13.405C43.0318 13.405 43.244 13.3759 43.4257 13.2879ZM43.4257 10.3517H44.3656C44.3049 9.79422 43.941 9.35335 43.4257 9.14827C43.244 9.05978 43.0318 9.03063 42.8195 9.03063C42.0016 9.03063 41.3648 9.58862 41.304 10.3517H43.4257ZM43.4257 6.62326C43.244 6.62326 43.0318 6.59411 42.8195 6.59411C41.5469 6.59411 40.334 7.12243 39.4855 7.97347L41.7286 11.7316V11.526H47.518C47.518 11.3792 47.5486 11.2621 47.5486 11.1444C47.5486 8.8547 45.7295 6.91683 43.4257 6.62326ZM34.6054 9.35335L33.4838 7.50397C33.7869 7.15158 34.1808 6.91683 34.6054 6.79919C34.8477 6.71123 35.1202 6.68208 35.3631 6.68208H37.5154V9.08945H36.9086C36.2116 9.08945 35.6963 9.55895 35.6963 10.2637V11.1741L34.6054 9.35335ZM25.3299 11.7316L22.0254 6.24173C22.0254 9.38302 22.0254 12.5243 22.0254 15.6364H24.693V15.2549C25.3299 15.5485 26.0269 15.7244 26.754 15.7244C29.3308 15.7244 31.4831 13.6694 31.4831 11.1444C31.4831 8.6491 29.3308 6.59411 26.754 6.59411C26.0269 6.59411 25.3299 6.77005 24.693 7.06361V3.27637H22.0254C22.0254 4.33301 22.0254 3.86298 22.0254 4.92014L25.3599 10.4693C25.6023 9.99931 26.1478 9.64744 26.754 9.64744C27.6031 9.64744 28.3001 10.3225 28.3001 11.1444C28.3001 11.9663 27.6031 12.6419 26.754 12.6419C26.1177 12.6419 25.5722 12.2896 25.3299 11.7316Z" fill="#C7070F"/>
</g>
<defs>
<clipPath id="clip0_837_832">
<rect width="84" height="19" fill="white"/>
</clipPath>
</defs>
</svg>
