<svg width="61" height="23" viewBox="0 0 61 23" fill="none" xmlns="http://www.w3.org/2000/svg">
<path d="M60.6674 10.6022C60.6877 10.6635 60.6877 10.7044 60.6877 10.7657C60.6877 10.7044 60.6674 10.6635 60.6674 10.6022ZM30.425 0C13.529 0 0 5.10705 0 11.4807C0 17.8338 13.6507 22.9613 30.425 22.9613C47.1993 22.9613 60.85 17.8134 60.85 11.4807C60.85 5.14791 47.1993 0 30.425 0Z" fill="#F0F3F7"/>
<path d="M0.466797 11.4807C0.466797 17.5683 13.8741 22.5119 30.4253 22.5119C46.9765 22.5119 60.3838 17.5887 60.3838 11.4807C60.3838 5.39306 46.9765 0.449432 30.4253 0.449432C13.8741 0.449432 0.466797 5.39306 0.466797 11.4807Z" fill="url(#paint0_radial_109_26641)"/>
<path d="M2.71973 11.4807C2.71973 11.8893 2.80086 12.2978 2.96313 12.7064C2.90228 12.4408 2.86171 12.1753 2.86171 11.9097C2.86171 6.86392 15.2548 2.77827 30.5687 2.77827C44.6454 2.77827 56.2677 6.23064 58.0324 10.7249C56.8559 6.00593 44.9496 2.30843 30.4268 2.30843C15.1331 2.288 2.71973 6.4145 2.71973 11.4807Z" fill="url(#paint1_linear_109_26641)"/>
<path d="M59.1285 11.4806C59.1285 17.0371 46.2688 21.5517 30.4275 21.5517C16.3103 21.5517 4.58657 17.9768 2.17285 13.2783C4.01864 18.181 16.0467 21.9603 30.6304 21.9603C46.4919 21.9603 59.3313 17.4865 59.3313 11.9913C59.3313 11.4397 59.1893 10.8882 58.9459 10.357C59.0676 10.7043 59.1285 11.0924 59.1285 11.4806Z" fill="url(#paint2_linear_109_26641)"/>
<path d="M35.7794 12.4613C35.1304 13.1354 35.0898 14.0138 35.5157 14.402C35.6577 14.545 35.8403 14.6063 36.0228 14.6267C35.7389 14.2794 35.6172 13.5848 35.962 13.0537C35.9011 12.8903 35.8808 12.7064 35.9214 12.5226C35.9214 12.4817 35.9011 12.4409 35.8606 12.4409C35.82 12.4204 35.7997 12.4409 35.7794 12.4613Z" fill="url(#paint3_linear_109_26641)"/>
<path d="M42.4088 13.8911C42.4088 13.9932 42.4493 14.1771 42.4696 14.3201C42.5102 14.2588 42.5305 14.1975 42.571 14.1158C42.5913 14.0545 42.5913 14.0545 42.5507 14.0341C42.4899 14.0137 42.4088 13.9524 42.4088 13.9115C42.3885 13.9115 42.3885 13.9115 42.4088 13.8911Z" fill="url(#paint4_linear_109_26641)"/>
<path d="M43.1846 11.6849C43.4077 11.8892 43.5294 12.1343 43.5497 12.3795C43.5497 12.4816 43.6511 12.502 43.7119 12.3999C43.7322 12.3795 43.7525 12.3386 43.7728 12.2978C43.7525 12.2773 43.7322 12.2569 43.7119 12.216C43.6308 12.1139 43.4077 11.8892 43.1846 11.6849Z" fill="url(#paint5_linear_109_26641)"/>
<path d="M34.2793 11.2763C34.4416 11.5214 34.5227 11.8483 34.5227 12.2773C34.5227 12.3794 34.6038 12.3794 34.6444 12.2977C34.6647 12.2569 34.7052 12.216 34.7255 12.1751C34.6241 11.787 34.4213 11.4193 34.2793 11.2763Z" fill="url(#paint6_linear_109_26641)"/>
<path d="M40.2211 13.5234C39.6126 14.2588 39.2881 15.0147 39.2881 15.7501C39.2881 16.0156 39.3895 16.3425 39.6126 16.4446C39.6938 16.4855 39.7546 16.5059 39.8357 16.5263C39.8155 16.4242 39.7952 16.3221 39.7952 16.2404C39.7952 15.4845 40.0183 14.7287 40.6268 13.9728C41.357 13.074 42.1278 12.6246 42.6551 12.8697C42.6348 12.6654 42.5334 12.502 42.3103 12.3998C42.2089 12.359 42.1075 12.3386 41.9858 12.3386C41.4584 12.3386 40.8093 12.788 40.2211 13.5234Z" fill="url(#paint7_linear_109_26641)"/>
<path d="M28.1737 11.9504C27.3624 12.2568 26.551 12.7471 25.9831 13.503C25.334 14.361 25.1718 15.4028 25.5977 16.0156C25.6991 16.1586 25.8208 16.2608 25.9628 16.3221C25.7397 15.6071 25.902 14.6469 26.4496 13.9115C27.0175 13.1557 27.6463 12.8697 28.3563 12.5428C28.4577 12.502 28.4577 12.4407 28.4374 12.359C28.3968 12.216 28.3157 11.8483 28.2751 11.7666C28.2954 11.8687 28.2751 11.93 28.1737 11.9504Z" fill="url(#paint8_linear_109_26641)"/>
<path d="M34.2563 14.2588C33.5058 15.4232 32.7959 16.5468 32.0454 17.7316C32.0048 17.7929 31.9642 17.8133 31.9034 17.8338H30.4227C30.3619 17.8338 30.3416 17.8133 30.3213 17.7725C30.3619 17.9563 30.4227 18.2832 30.443 18.3649C30.4633 18.4262 30.5038 18.4466 30.5444 18.4466H32.2279C32.2888 18.4466 32.3496 18.4057 32.3699 18.3445C33.0595 17.2618 33.7897 16.0974 34.4794 15.0147C34.6416 15.5662 34.7025 15.8114 35.0067 16.0769C35.2907 16.3425 35.5544 16.4038 35.9601 16.4038C36.3252 16.4038 36.67 16.2608 37.0959 16.0769C37.2582 16.0156 37.3799 15.9339 37.5016 15.8522C37.5016 15.6479 37.5219 15.4436 37.5624 15.2598C37.5624 15.2394 37.5422 15.1168 37.4407 15.1781C37.2379 15.3211 36.9945 15.4641 36.67 15.5866C36.2846 15.7296 36.102 15.7909 35.7369 15.7909C35.2907 15.7909 34.885 15.5866 34.6011 15.1372C34.4388 14.8921 34.378 14.5244 34.3577 14.2588C34.3577 14.2384 34.3374 14.218 34.3171 14.218C34.2968 14.2384 34.2765 14.2384 34.2563 14.2588Z" fill="url(#paint9_linear_109_26641)"/>
<path d="M47.3215 14.8718C46.5913 15.7707 45.8002 16.6082 45.0295 17.2006C43.8328 18.1403 42.6563 18.3651 42.0681 17.7726C41.845 17.5479 41.7233 17.2415 41.7233 16.9555C41.7233 16.8125 41.6422 16.8125 41.5813 16.8738C40.8714 17.5684 39.6544 18.3446 38.5388 17.7931C37.9912 17.5071 37.6869 16.9964 37.5652 16.4244C37.6261 16.8329 37.7275 17.4254 37.91 17.7931C38.0317 18.0382 38.3157 18.3242 38.4982 18.4059C39.4921 18.8962 40.8917 18.3446 41.8044 17.4662C41.8044 17.4458 41.8247 17.4458 41.8247 17.4458C41.8653 17.6092 41.9261 17.7931 41.9261 17.8135C41.987 18.0178 42.0884 18.2016 42.1695 18.3038C42.7983 19.0188 44.0964 18.6919 45.4757 17.6296C46.2465 17.0372 46.8144 16.4448 47.504 15.6277C47.5243 15.5868 47.5243 15.546 47.5243 15.4642C47.4838 15.2804 47.4229 14.974 47.3823 14.8105C47.3418 14.8105 47.3418 14.8514 47.3215 14.8718Z" fill="url(#paint10_linear_109_26641)"/>
<path d="M37.8896 12.3999C37.8287 12.8493 37.5853 13.2375 37.1797 13.4417C36.8349 13.6052 36.4292 13.5847 36.1452 13.3192C36.0641 13.2375 36.0032 13.1353 35.9424 13.0332C36.0235 13.36 36.0844 13.6052 36.1655 13.7482C36.4292 14.1567 36.8957 14.2589 37.4028 13.9729C37.7679 13.7686 38.0924 13.3396 38.0519 12.6655C38.0316 12.3182 37.9301 11.9709 37.7679 11.6849C37.8896 11.9096 37.9302 12.1548 37.8896 12.3999Z" fill="url(#paint11_linear_109_26641)"/>
<path d="M48.2949 8.19169C48.0718 8.60025 43.6095 15.4233 43.3255 16.1383C43.2444 16.363 43.2241 16.5264 43.3255 16.649C43.4269 16.7715 43.5486 16.8124 43.7109 16.8124C43.7312 16.7307 43.7514 16.6285 43.792 16.5264C44.076 15.8114 48.2544 9.43781 48.4775 9.02924C48.4978 8.98839 48.4978 8.94753 48.4775 8.9271C48.4572 8.86582 48.3152 8.19169 48.3152 8.1304C48.3152 8.15083 48.3152 8.17126 48.2949 8.19169Z" fill="url(#paint12_linear_109_26641)"/>
<path d="M29.793 11.3784L29.8335 11.4193C30.0972 11.8279 30.2392 12.3794 30.2595 12.9718C30.2798 13.0944 30.3203 13.0944 30.3812 13.0331C30.442 12.9718 30.4826 12.9106 30.5435 12.8697C30.4623 12.5633 30.3406 12.2773 30.2189 12.0117C30.1784 11.8892 29.9755 11.5419 29.793 11.3784Z" fill="url(#paint13_linear_109_26641)"/>
<path d="M32.0661 12.7267C31.1128 13.4621 30.3014 14.6061 29.8958 15.1168C29.6524 15.4232 29.4293 15.8522 28.8005 16.5468C27.8066 17.6295 26.4882 18.2628 25.2306 17.8133C24.541 17.5886 24.0339 17.0166 23.8513 16.3221C23.8108 16.1791 23.7296 16.1587 23.6688 16.2404C23.466 16.5059 23.04 16.8736 22.6952 17.1188C22.6546 17.1392 22.5532 17.2005 22.4721 17.1596C22.3909 17.1188 22.1475 16.7511 22.0867 16.6489C22.0867 16.6285 22.0664 16.6285 22.0664 16.6081C22.1475 17.0575 22.1678 17.1188 22.2895 17.3231C22.4315 17.5478 22.5735 17.7112 22.5938 17.7316C22.6749 17.7725 22.756 17.7316 22.7966 17.7112C23.0603 17.5682 23.5877 17.1596 23.8311 16.8736C23.8919 16.8124 23.973 16.8532 23.9933 16.9145C24.0947 17.2209 24.2367 17.4456 24.3787 17.7112C24.541 17.9972 24.8858 18.2832 25.332 18.4058C25.9 18.5692 26.5287 18.5896 27.3401 18.2832C27.9891 18.0381 28.6788 17.5274 29.2061 16.9349C29.8349 16.2404 30.058 15.8114 30.3014 15.505C30.7071 14.9943 31.3562 14.0954 32.2486 13.3191C32.5529 13.0536 32.8977 12.8697 33.1208 12.9514C33.2425 12.6246 33.1817 12.4407 33.06 12.3386C33.0194 12.3182 32.9586 12.2977 32.8977 12.2977C32.6543 12.3386 32.3501 12.5224 32.0661 12.7267Z" fill="url(#paint14_linear_109_26641)"/>
<path d="M16.0866 11.8074C15.539 12.0934 14.8899 12.5633 14.5654 13.217C14.3017 13.7481 14.2611 14.3814 14.6465 14.9942C14.6871 15.0351 14.7074 15.0964 14.7479 15.1372C14.6262 14.6265 14.7682 14.0954 14.9508 13.6868C15.2753 13.0331 15.7215 12.7267 16.1678 12.4407C16.3503 12.3181 16.4517 12.1956 16.33 11.8891C16.2895 11.8074 16.2692 11.644 16.2489 11.501C16.2692 11.6236 16.2083 11.7461 16.0866 11.8074Z" fill="url(#paint15_linear_109_26641)"/>
<path d="M20.1646 5.29088C18.6028 5.8833 17.9131 7.12942 18.2377 7.96698C18.2985 8.1304 18.3999 8.25297 18.5419 8.33469C18.4405 7.55841 19.0084 6.31229 20.5094 5.80159C22.4769 5.14788 24.6675 5.55645 26.4321 5.94458C26.6755 5.78116 26.8986 5.67902 27.1015 5.55645C27.2029 5.49516 27.0812 5.43388 27.0609 5.43388C25.6614 5.16831 24.201 4.84146 22.7811 4.84146C21.8887 4.84146 21.0165 4.96403 20.1646 5.29088Z" fill="url(#paint16_linear_109_26641)"/>
<path d="M26.713 9.96892C26.0031 10.0098 24.9078 10.1119 24.1573 10.2141C23.9747 10.2345 23.9544 10.2753 23.9139 10.3366C22.7172 12.3182 21.4596 14.4427 20.06 15.8727C18.5591 17.4048 17.3218 17.8134 16.0034 17.8134C14.4821 17.8338 13.1231 16.9554 12.7783 15.4233C12.9609 16.2812 13.5085 17.3026 14.1373 17.7521C14.7864 18.2015 15.4152 18.3649 16.1454 18.3649C17.6463 18.3853 19.0256 17.7725 20.486 16.2812C21.8855 14.8513 23.1025 12.8493 24.279 10.8678C24.3195 10.8065 24.3601 10.7656 24.5629 10.7452C25.3134 10.643 25.9828 10.6022 26.6521 10.5409C26.855 10.5205 26.9969 10.5001 27.0781 10.5818C27.3215 10.8269 27.5852 11.0516 27.788 11.1538C27.9097 11.1538 28.0111 11.1742 28.0922 11.2559C28.1734 11.2355 28.2342 11.1946 28.2951 11.1538C28.3762 11.072 28.3762 10.9699 28.3762 10.8882C28.3559 10.7248 28.2951 10.3979 28.2545 10.3162C28.2951 10.3775 28.2748 10.4796 28.1937 10.5613C28.1328 10.6226 28.0517 10.6839 27.9503 10.6839C27.8691 10.6839 27.8083 10.643 27.7069 10.6022C27.4837 10.4796 27.1998 10.2753 27.0172 10.0506C26.9767 9.98935 26.9361 9.96892 26.855 9.96892C26.7738 9.94849 26.7535 9.96892 26.713 9.96892Z" fill="url(#paint17_linear_109_26641)"/>
<path d="M20.261 11.1538C20.0987 11.2763 19.8553 11.2559 19.7539 11.0925C19.7133 11.0312 19.6931 10.9699 19.6931 10.9291C19.6728 11.1946 19.7742 11.5623 19.8553 11.6849C19.9365 11.8279 20.2001 11.8892 20.403 11.7462C20.8492 11.3989 21.2752 11.215 21.7214 11.1129C21.8431 10.9495 21.9648 10.7656 22.1068 10.5613C22.1271 10.5409 22.1271 10.5205 22.1068 10.5205C22.1068 10.5001 22.0865 10.5001 22.0459 10.5001C21.4171 10.5205 20.8289 10.7248 20.261 11.1538Z" fill="url(#paint18_linear_109_26641)"/>
<path d="M39.2451 4.86188C39.2451 4.87957 39.2628 4.87957 39.2628 4.89726C39.2628 4.87957 39.2628 4.86188 39.2451 4.86188Z" fill="url(#paint19_linear_109_26641)"/>
<path d="M39.3299 5.14788C39.3096 5.57687 38.9648 6.00587 38.1332 6.45529C37.1799 6.98642 36.2063 7.12942 35.1718 7.14985C32.677 7.17027 30.3444 6.18972 27.951 5.65859C27.951 5.76073 27.9713 5.8833 27.8901 5.96501C26.5514 6.96599 25.3547 7.96697 24.5434 9.37652C24.5231 9.41738 24.5231 9.43781 24.5839 9.43781C24.8071 9.41738 25.0099 9.41738 25.2127 9.39695C25.9429 8.23254 26.734 7.57884 27.9307 6.68C28.0118 6.61871 28.1132 6.55743 28.0727 6.31229C30.4864 6.84342 32.3119 7.74226 35.4355 7.76269C36.3686 7.76269 37.6667 7.45627 38.3766 7.02728C39.1879 6.537 39.4111 6.16929 39.4313 5.80158C39.4313 5.67901 39.4111 5.49516 39.3908 5.41345C39.3705 5.29088 39.3502 5.12745 39.3096 5.00488C39.3299 5.02531 39.3299 5.0866 39.3299 5.14788Z" fill="url(#paint20_linear_109_26641)"/>
<path d="M27.7083 8.10998C27.6881 8.13041 27.6475 8.17127 27.6069 8.1917C27.3635 8.43684 27.3027 8.76369 27.323 9.00883C27.3432 9.11097 27.3838 9.13139 27.4244 9.11097C27.4649 9.11097 27.5258 9.09054 27.5664 9.07011C27.5866 8.92711 27.6475 8.80454 27.7692 8.68197C27.8706 8.60026 27.9923 8.5594 28.0937 8.57983C28.1951 8.39598 28.2154 8.17127 28.0937 8.06913C28.0532 8.02827 27.9923 8.00784 27.9112 8.00784C27.8706 8.02827 27.7895 8.0487 27.7083 8.10998Z" fill="url(#paint21_linear_109_26641)"/>
<path d="M28.6617 8.96797C28.4386 9.41739 28.0532 9.6421 27.6881 9.76467C27.6881 9.76467 27.607 9.7851 27.6273 9.84638C27.6273 9.92809 27.891 10.0915 28.0532 10.1937C28.0735 10.1937 28.1141 10.1732 28.1141 10.1732C28.2966 10.0915 28.6009 9.90767 28.7834 9.51953C28.9051 9.27439 28.966 9.07011 28.9051 8.62069C28.8646 8.31426 28.8037 8.02827 28.7226 7.9057C28.9051 8.23255 28.8443 8.64112 28.6617 8.96797Z" fill="url(#paint22_linear_109_26641)"/>
<path d="M22.0099 6.90469C22.0505 7.00683 22.0505 7.19069 21.9694 7.39497C21.3 8.96794 20.0424 10.1936 18.5009 10.2549C17.5679 10.2753 16.8782 9.8055 16.5537 9.11094C16.7971 9.64207 17.2839 10.1119 17.7099 10.3775C18.0344 10.5818 18.4603 10.7043 18.9269 10.6839C20.5292 10.6226 21.7462 9.2948 22.1519 8.17124C22.2533 7.86482 22.1722 7.53797 22.1316 7.33369C22.0911 7.23155 22.0708 7.04769 22.0099 6.90469Z" fill="url(#paint23_linear_109_26641)"/>
<path d="M60.6674 10.6022C60.6877 10.6635 60.6877 10.7044 60.6877 10.7657C60.6877 10.7044 60.6674 10.6635 60.6674 10.6022ZM0.202833 11.6237C0.202833 10.2754 0.79105 8.94756 2.02833 7.68101C6.38925 3.24809 17.7885 0.265567 30.3641 0.204282C47.037 0.142998 60.6066 5.14791 60.6472 11.3581C60.6472 12.7064 60.0387 14.0138 58.8014 15.2803C54.4405 19.7132 43.0615 22.7162 30.4858 22.757C13.813 22.8387 0.2434 17.8338 0.202833 11.6237ZM30.425 0C13.529 0 0 5.10705 0 11.4807C0 17.8338 13.6507 22.9613 30.425 22.9613C47.1993 22.9613 60.85 17.8134 60.85 11.4807C60.85 5.14791 47.1993 0 30.425 0Z" fill="#4F4C4D"/>
<path d="M0.103516 11.4807C0.103516 11.7871 0.144082 12.0731 0.204932 12.3795C0.164366 12.1344 0.123799 11.8688 0.123799 11.6237C0.123799 10.255 0.732299 8.88628 1.96958 7.61973C6.35078 3.16638 17.7703 0.163427 30.3663 0.122571C32.1106 0.122571 33.8347 0.163427 35.4979 0.265568C33.855 0.163427 32.1512 0.102142 30.4271 0.102142C13.6122 0.102142 0.103516 5.16834 0.103516 11.4807Z" fill="url(#paint24_linear_109_26641)"/>
<path d="M60.7302 11.358C60.7302 12.7267 60.1014 14.075 58.8439 15.3415C54.483 19.7745 43.0634 22.7978 30.4675 22.8591C28.6825 22.8591 26.9382 22.8183 25.2344 22.7161C26.9179 22.8183 28.642 22.8796 30.4066 22.8796C47.1404 22.8796 60.7302 17.7316 60.7302 11.4806C60.7302 11.2355 60.7099 11.0108 60.6694 10.7656C60.7302 10.9699 60.7302 11.1742 60.7302 11.358Z" fill="url(#paint25_linear_109_26641)"/>
<path d="M1.70605 11.4806C1.70605 17.0371 14.5657 21.5518 30.407 21.5518C46.2685 21.5518 59.1079 17.0371 59.1079 11.4806C59.1282 5.92417 46.2888 1.42996 30.4273 1.42996C14.5657 1.42996 1.70605 5.92417 1.70605 11.4806ZM2.72022 11.4806C2.72022 6.39402 15.1133 2.28795 30.4273 2.28795C45.7209 2.28795 58.1343 6.39402 58.1343 11.4806C58.1343 16.5673 45.7412 20.6733 30.4273 20.6733C15.1336 20.6733 2.72022 16.5673 2.72022 11.4806Z" fill="url(#paint26_linear_109_26641)"/>
<path d="M46.6719 8.06909C46.5502 8.06909 46.5097 8.08952 46.4488 8.19166C46.2663 8.53894 44.1162 11.7666 43.7309 12.3999C43.67 12.502 43.5889 12.4816 43.5686 12.3794C43.528 12.0117 43.2035 11.5827 42.6964 11.3785C42.311 11.215 41.9256 11.1946 41.5403 11.2355C40.8303 11.3376 40.2016 11.7053 39.6539 12.1343C38.8223 12.7676 38.0921 13.6051 37.1793 14.218C36.6723 14.5448 35.9826 14.8513 35.5161 14.4018C35.0902 14.0137 35.151 13.1353 35.7798 12.4612C35.8406 12.3999 35.9218 12.4407 35.9218 12.5224C35.8609 12.8289 35.9421 13.1353 36.1652 13.3396C36.4491 13.5847 36.8548 13.6256 37.1996 13.4621C37.6053 13.2579 37.8487 12.8697 37.9095 12.4203C38.011 11.7257 37.4836 11.1333 36.8345 11.072C36.3072 11.0312 35.7798 11.215 35.293 11.644C35.0496 11.8483 34.9076 12.0117 34.6845 12.3182C34.6236 12.3999 34.5425 12.3999 34.5628 12.2977C34.5831 11.4193 34.218 10.929 33.5081 10.9086C32.9401 10.8882 32.3519 11.1946 31.8854 11.5827C31.3783 11.9913 30.9321 12.5429 30.4453 13.0536C30.3844 13.1149 30.3236 13.1149 30.3236 12.9923C30.3033 12.3999 30.1613 11.8483 29.8976 11.4397C29.7962 11.2967 29.5934 11.2355 29.4311 11.3172C29.35 11.358 29.0863 11.4806 28.8835 11.644C28.782 11.7257 28.7415 11.8483 28.782 11.9913C29.0457 12.8697 28.9849 13.8503 28.6401 14.6878C28.3155 15.4641 27.6867 16.1382 26.9565 16.3834C26.4697 16.5468 25.9627 16.4651 25.6584 16.0361C25.2325 15.4437 25.3947 14.4018 26.0438 13.5234C26.6117 12.7676 27.4231 12.2773 28.2344 11.9709C28.3358 11.93 28.3561 11.8687 28.3155 11.787C28.275 11.644 28.1938 11.4602 28.1735 11.3785C28.0924 11.1742 27.8896 11.1538 27.6259 11.1742C27.0377 11.2355 26.5103 11.4397 25.9627 11.7257C24.5834 12.4612 23.8938 13.9116 23.5895 14.6878C23.4475 15.0555 23.3258 15.2803 23.1636 15.4845C22.9404 15.7705 22.6768 16.0157 22.1697 16.4447C22.1291 16.4855 22.0885 16.5672 22.1291 16.6489C22.19 16.7511 22.4334 17.1188 22.5145 17.1596C22.5956 17.2005 22.697 17.1392 22.7376 17.1188C23.0824 16.8737 23.5084 16.5059 23.7112 16.2404C23.7721 16.1587 23.8532 16.1995 23.8938 16.3221C24.0763 17.0166 24.5834 17.5682 25.273 17.8133C26.5306 18.2423 27.849 17.6295 28.8429 16.5468C29.4717 15.8522 29.6948 15.4232 29.9382 15.1168C30.3439 14.6061 31.1552 13.4621 32.1085 12.7267C32.4533 12.4612 32.8793 12.2569 33.0821 12.3794C33.2444 12.4816 33.3052 12.7472 33.0415 13.2374C32.0679 15.0351 30.6278 17.1596 30.3641 17.6704C30.3236 17.7521 30.3641 17.8338 30.4453 17.8338H31.926C32.0071 17.8338 32.0477 17.7929 32.0679 17.7316C32.8184 16.5468 33.5283 15.4232 34.2788 14.2588C34.3194 14.1976 34.36 14.2384 34.36 14.2793C34.3802 14.5448 34.4411 14.9125 34.6034 15.1577C34.8873 15.6071 35.293 15.791 35.7392 15.8114C36.1043 15.8114 36.2869 15.7705 36.6723 15.6071C36.9968 15.4845 37.2402 15.3415 37.443 15.1985C37.5647 15.1168 37.585 15.2598 37.5647 15.2803C37.3822 16.2199 37.6053 17.3435 38.5383 17.7929C39.6539 18.3445 40.8709 17.5682 41.5808 16.8736C41.6417 16.8124 41.7228 16.8124 41.7228 16.9554C41.7431 17.2209 41.8648 17.5478 42.0676 17.7725C42.6558 18.3649 43.8526 18.1402 45.029 17.2005C45.7998 16.6081 46.5908 15.7705 47.321 14.8717C47.3413 14.8308 47.3616 14.79 47.321 14.7287C47.2196 14.6061 47.0573 14.4835 46.9356 14.3814C46.8951 14.3406 46.8139 14.361 46.7734 14.3814C46.0229 15.0964 45.3738 15.8931 44.4002 16.5672C44.0757 16.7919 43.5483 16.9758 43.3252 16.6694C43.2441 16.5468 43.2441 16.3834 43.3252 16.1587C43.6092 15.4437 48.0715 8.62065 48.2946 8.21209C48.3352 8.1508 48.2946 8.08952 48.2135 8.08952C47.747 8.06909 47.1385 8.06909 46.6719 8.06909ZM39.6133 16.4651C39.3902 16.3425 39.2888 16.0157 39.2888 15.7705C39.3091 15.0351 39.6336 14.2793 40.2218 13.5439C40.952 12.645 41.7634 12.1752 42.2907 12.4203C42.8384 12.6859 42.6558 13.3191 42.4124 13.8298C42.3922 13.8707 42.3922 13.9116 42.4124 13.932C42.4124 13.9933 42.4936 14.0341 42.5544 14.0546C42.5747 14.0546 42.595 14.075 42.5747 14.1363C42.3922 14.5448 42.2096 14.79 41.9662 15.1373C41.7431 15.4641 41.4997 15.7297 41.1954 15.9748C40.8506 16.2608 40.4044 16.5672 39.9784 16.5672C39.8567 16.5672 39.7148 16.5264 39.6133 16.4651Z" fill="url(#paint27_linear_109_26641)"/>
<path d="M22.9804 3.92218C22.5544 3.92218 22.1285 3.94261 21.7025 3.98346C18.9643 4.20818 16.368 5.76072 16.3477 8.13039C16.3477 9.33566 17.1996 10.2958 18.4978 10.2549C20.0393 10.1936 21.2969 8.96795 21.9662 7.39498C22.2096 6.80256 21.7431 6.55742 21.5403 6.9047C21.1549 7.51755 20.5869 7.98739 19.9987 8.29382C19.2685 8.6411 18.4978 8.55939 18.2746 7.96697C17.9501 7.12941 18.6397 5.88329 20.2016 5.29087C22.453 4.45331 24.8262 5.00488 27.0979 5.43387C27.1385 5.43387 27.2602 5.49515 27.1385 5.55644C26.7328 5.78115 26.3271 5.965 25.6983 6.49614C25.2521 6.88427 24.6639 7.39498 24.2177 7.94654C23.7714 8.4981 23.4469 8.98838 23.0209 9.53994C22.9601 9.62165 22.8992 9.62165 22.8992 9.62165C21.8648 9.80551 20.8709 9.90765 19.9379 10.5614C19.7553 10.6839 19.6742 10.9291 19.7756 11.1129C19.877 11.2763 20.1204 11.2968 20.2827 11.1742C20.8506 10.7452 21.4388 10.5409 22.1285 10.5205C22.1488 10.5205 22.169 10.5205 22.1893 10.5409V10.5818C21.1752 11.9913 20.9318 12.3182 20.161 13.1966C19.7756 13.646 19.3902 14.0341 18.9643 14.4223C17.2402 16.0361 15.3741 16.0157 14.7048 14.9943C14.2991 14.3814 14.36 13.7482 14.6236 13.217C14.9482 12.5633 15.5972 12.0935 16.1449 11.8075C16.3477 11.7053 16.4086 11.4398 16.2057 11.2151C16.084 11.0516 15.7595 11.0312 15.5364 11.0721C14.8265 11.1946 13.9949 11.7462 13.4878 12.3999C12.9401 13.1353 12.6562 14.0137 12.7373 14.9943C12.8996 16.792 14.36 17.8134 16.0232 17.8134C17.3416 17.7929 18.5992 17.4048 20.0799 15.8727C21.4794 14.4427 22.7573 12.3182 23.9337 10.3366C23.9743 10.2754 23.9945 10.2345 24.1771 10.2141C24.9276 10.1119 26.0229 10.0098 26.7328 9.96893C26.8951 9.96893 26.9153 9.96893 26.9762 10.0506C27.1587 10.2754 27.4427 10.4796 27.6658 10.6022C27.7672 10.6635 27.8281 10.6839 27.9092 10.6839C28.0106 10.6839 28.0918 10.6226 28.1526 10.5614C28.2338 10.4796 28.254 10.3775 28.2135 10.2958C28.1729 10.2141 27.6861 9.9485 27.6658 9.84636C27.6455 9.78508 27.7267 9.76465 27.7267 9.76465C28.0918 9.64208 28.4569 9.41737 28.7003 8.96795C28.9234 8.53896 28.964 7.94654 28.5583 7.64012C28.1932 7.35412 27.6455 7.39498 27.2196 7.80354C26.7936 8.19168 26.6517 8.74324 26.7125 9.23352C26.7125 9.31523 26.7125 9.35609 26.6111 9.35609C25.962 9.41737 25.3332 9.41737 24.6233 9.45823C24.5828 9.45823 24.5625 9.4378 24.5828 9.39694C25.3941 7.9874 26.5908 6.98641 27.9295 5.98543C28.0106 5.92415 27.9904 5.80158 27.9904 5.67901C30.4041 6.21014 32.7164 7.19069 35.2112 7.17027C36.2457 7.17027 37.2396 7.00684 38.1726 6.47571C39.0042 6.02629 39.349 5.59729 39.3693 5.1683C39.3896 4.86188 39.1868 4.67802 38.8825 4.73931C36.3674 5.33173 33.9537 5.3113 31.4385 5.00488C28.5583 4.63717 25.82 3.92218 22.9804 3.92218ZM27.321 9.00881C27.2804 8.74324 27.3616 8.37553 27.6658 8.13039C27.8078 8.00782 28.0106 7.96697 28.1121 8.06911C28.254 8.19168 28.1729 8.47767 28.0512 8.66153C27.9092 8.88624 27.6455 9.07009 27.4224 9.11095H27.4021C27.3819 9.13137 27.3413 9.11095 27.321 9.00881Z" fill="url(#paint28_linear_109_26641)"/>
<defs>
<radialGradient id="paint0_radial_109_26641" cx="0" cy="0" r="1" gradientUnits="userSpaceOnUse" gradientTransform="translate(30.1616 126.779) scale(131.366 129.01)">
<stop stop-color="#00050D"/>
<stop offset="0.7" stop-color="#051125"/>
<stop offset="0.904" stop-color="#173E7E"/>
<stop offset="0.955" stop-color="#4CA9E3"/>
<stop offset="1" stop-color="#4CA9E3"/>
</radialGradient>
<linearGradient id="paint1_linear_109_26641" x1="30.3742" y1="23.2281" x2="30.3742" y2="-0.125458" gradientUnits="userSpaceOnUse">
<stop stop-color="#08142E"/>
<stop offset="0.809" stop-color="#17326E"/>
<stop offset="1" stop-color="#0D69A9"/>
</linearGradient>
<linearGradient id="paint2_linear_109_26641" x1="30.7412" y1="23.2399" x2="30.7412" y2="-0.11578" gradientUnits="userSpaceOnUse">
<stop stop-color="#08142E"/>
<stop offset="0.809" stop-color="#17326E"/>
<stop offset="1" stop-color="#0D69A9"/>
</linearGradient>
<linearGradient id="paint3_linear_109_26641" x1="35.6183" y1="19.2165" x2="35.6183" y2="3.03533" gradientUnits="userSpaceOnUse">
<stop stop-color="#08142E"/>
<stop offset="0.809" stop-color="#17326E"/>
<stop offset="1" stop-color="#0D69A9"/>
</linearGradient>
<linearGradient id="paint4_linear_109_26641" x1="42.4798" y1="19.2825" x2="42.4798" y2="2.88565" gradientUnits="userSpaceOnUse">
<stop stop-color="#08142E"/>
<stop offset="0.809" stop-color="#17326E"/>
<stop offset="1" stop-color="#0D69A9"/>
</linearGradient>
<linearGradient id="paint5_linear_109_26641" x1="17523.3" y1="18.6403" x2="17523.3" y2="3.61991" gradientUnits="userSpaceOnUse">
<stop stop-color="#08142E"/>
<stop offset="0.809" stop-color="#17326E"/>
<stop offset="1" stop-color="#0D69A9"/>
</linearGradient>
<linearGradient id="paint6_linear_109_26641" x1="34.5141" y1="18.8583" x2="34.5141" y2="3.33207" gradientUnits="userSpaceOnUse">
<stop stop-color="#08142E"/>
<stop offset="0.809" stop-color="#17326E"/>
<stop offset="1" stop-color="#0D69A9"/>
</linearGradient>
<linearGradient id="paint7_linear_109_26641" x1="40.9558" y1="19.2802" x2="40.9558" y2="2.90977" gradientUnits="userSpaceOnUse">
<stop stop-color="#08142E"/>
<stop offset="0.809" stop-color="#17326E"/>
<stop offset="1" stop-color="#0D69A9"/>
</linearGradient>
<linearGradient id="paint8_linear_109_26641" x1="26.8949" y1="19.2647" x2="26.8949" y2="2.89773" gradientUnits="userSpaceOnUse">
<stop stop-color="#08142E"/>
<stop offset="0.809" stop-color="#17326E"/>
<stop offset="1" stop-color="#0D69A9"/>
</linearGradient>
<linearGradient id="paint9_linear_109_26641" x1="18977.5" y1="19.2621" x2="18977.5" y2="3.00706" gradientUnits="userSpaceOnUse">
<stop stop-color="#08142E"/>
<stop offset="0.809" stop-color="#17326E"/>
<stop offset="1" stop-color="#0D69A9"/>
</linearGradient>
<linearGradient id="paint10_linear_109_26641" x1="42.5188" y1="19.2817" x2="42.5188" y2="2.90751" gradientUnits="userSpaceOnUse">
<stop stop-color="#08142E"/>
<stop offset="0.809" stop-color="#17326E"/>
<stop offset="1" stop-color="#0D69A9"/>
</linearGradient>
<linearGradient id="paint11_linear_109_26641" x1="37.0119" y1="19.286" x2="37.0119" y2="2.90142" gradientUnits="userSpaceOnUse">
<stop stop-color="#08142E"/>
<stop offset="0.809" stop-color="#17326E"/>
<stop offset="1" stop-color="#0D69A9"/>
</linearGradient>
<linearGradient id="paint12_linear_109_26641" x1="45.884" y1="19.2666" x2="45.884" y2="2.89642" gradientUnits="userSpaceOnUse">
<stop stop-color="#08142E"/>
<stop offset="0.809" stop-color="#17326E"/>
<stop offset="1" stop-color="#0D69A9"/>
</linearGradient>
<linearGradient id="paint13_linear_109_26641" x1="30.1626" y1="19.0998" x2="30.1626" y2="3.10746" gradientUnits="userSpaceOnUse">
<stop stop-color="#08142E"/>
<stop offset="0.809" stop-color="#17326E"/>
<stop offset="1" stop-color="#0D69A9"/>
</linearGradient>
<linearGradient id="paint14_linear_109_26641" x1="27.6398" y1="19.2744" x2="27.6398" y2="3.0143" gradientUnits="userSpaceOnUse">
<stop stop-color="#08142E"/>
<stop offset="0.809" stop-color="#17326E"/>
<stop offset="1" stop-color="#0D69A9"/>
</linearGradient>
<linearGradient id="paint15_linear_109_26641" x1="15.3844" y1="19.2624" x2="15.3844" y2="2.8929" gradientUnits="userSpaceOnUse">
<stop stop-color="#08142E"/>
<stop offset="0.809" stop-color="#17326E"/>
<stop offset="1" stop-color="#0D69A9"/>
</linearGradient>
<linearGradient id="paint16_linear_109_26641" x1="22.6521" y1="19.2817" x2="22.6521" y2="2.91579" gradientUnits="userSpaceOnUse">
<stop stop-color="#08142E"/>
<stop offset="0.809" stop-color="#17326E"/>
<stop offset="1" stop-color="#0D69A9"/>
</linearGradient>
<linearGradient id="paint17_linear_109_26641" x1="20.5415" y1="19.2697" x2="20.5415" y2="2.89971" gradientUnits="userSpaceOnUse">
<stop stop-color="#08142E"/>
<stop offset="0.809" stop-color="#17326E"/>
<stop offset="1" stop-color="#0D69A9"/>
</linearGradient>
<linearGradient id="paint18_linear_109_26641" x1="20.9223" y1="19.2799" x2="20.9223" y2="2.90163" gradientUnits="userSpaceOnUse">
<stop stop-color="#08142E"/>
<stop offset="0.809" stop-color="#17326E"/>
<stop offset="1" stop-color="#0D69A9"/>
</linearGradient>
<linearGradient id="paint19_linear_109_26641" x1="39.2538" y1="17.0868" x2="39.2538" y2="3.21059" gradientUnits="userSpaceOnUse">
<stop stop-color="#08142E"/>
<stop offset="0.809" stop-color="#17326E"/>
<stop offset="1" stop-color="#0D69A9"/>
</linearGradient>
<linearGradient id="paint20_linear_109_26641" x1="31.9885" y1="19.2725" x2="31.9885" y2="2.90433" gradientUnits="userSpaceOnUse">
<stop stop-color="#08142E"/>
<stop offset="0.809" stop-color="#17326E"/>
<stop offset="1" stop-color="#0D69A9"/>
</linearGradient>
<linearGradient id="paint21_linear_109_26641" x1="27.7714" y1="18.7186" x2="27.7714" y2="3.25428" gradientUnits="userSpaceOnUse">
<stop stop-color="#08142E"/>
<stop offset="0.809" stop-color="#17326E"/>
<stop offset="1" stop-color="#0D69A9"/>
</linearGradient>
<linearGradient id="paint22_linear_109_26641" x1="28.2904" y1="19.273" x2="28.2904" y2="2.90305" gradientUnits="userSpaceOnUse">
<stop stop-color="#08142E"/>
<stop offset="0.809" stop-color="#17326E"/>
<stop offset="1" stop-color="#0D69A9"/>
</linearGradient>
<linearGradient id="paint23_linear_109_26641" x1="19.3713" y1="19.2771" x2="19.3713" y2="2.9065" gradientUnits="userSpaceOnUse">
<stop stop-color="#08142E"/>
<stop offset="0.809" stop-color="#17326E"/>
<stop offset="1" stop-color="#0D69A9"/>
</linearGradient>
<linearGradient id="paint24_linear_109_26641" x1="23.7395" y1="28.4296" x2="16.6158" y2="2.03216" gradientUnits="userSpaceOnUse">
<stop stop-color="#B2B1B1"/>
<stop offset="0.35" stop-color="#DEDDDE"/>
<stop offset="0.65" stop-color="#DEDDDE"/>
<stop offset="1" stop-color="#B2B1B1"/>
</linearGradient>
<linearGradient id="paint25_linear_109_26641" x1="42.2356" y1="14.0125" x2="35.145" y2="-12.2625" gradientUnits="userSpaceOnUse">
<stop stop-color="#B2B1B1"/>
<stop offset="0.35" stop-color="#DEDDDE"/>
<stop offset="0.65" stop-color="#DEDDDE"/>
<stop offset="1" stop-color="#B2B1B1"/>
</linearGradient>
<linearGradient id="paint26_linear_109_26641" x1="30.4297" y1="-0.282603" x2="30.4297" y2="23.1914" gradientUnits="userSpaceOnUse">
<stop stop-color="white"/>
<stop offset="0.552" stop-color="white"/>
<stop offset="0.691" stop-color="#FAFAFA"/>
<stop offset="0.8" stop-color="#D3D2D2"/>
<stop offset="1" stop-color="#BDBCBC"/>
</linearGradient>
<linearGradient id="paint27_linear_109_26641" x1="35.1959" y1="7.23351" x2="35.1959" y2="18.8752" gradientUnits="userSpaceOnUse">
<stop stop-color="white"/>
<stop offset="0.552" stop-color="white"/>
<stop offset="0.691" stop-color="#EFEEEE"/>
<stop offset="0.8" stop-color="#E9E9E9"/>
<stop offset="1" stop-color="#D3D2D2"/>
</linearGradient>
<linearGradient id="paint28_linear_109_26641" x1="-19446.7" y1="2.79368" x2="-19446.7" y2="18.9428" gradientUnits="userSpaceOnUse">
<stop stop-color="white"/>
<stop offset="0.552" stop-color="white"/>
<stop offset="0.691" stop-color="#EFEEEE"/>
<stop offset="0.8" stop-color="#E9E9E9"/>
<stop offset="1" stop-color="#D3D2D2"/>
</linearGradient>
</defs>
</svg>
